<svg width="29" height="40" viewBox="0 0 29 40" fill="none" xmlns="http://www.w3.org/2000/svg">
<path fill-rule="evenodd" clip-rule="evenodd" d="M28.9117 19.1968C28.9117 21.9978 28.1138 24.6122 26.7331 26.8249L26.7687 26.9212C26.3045 27.6006 26.0019 28.435 25.9685 29.445C25.9095 31.2235 27.886 32.5156 28.5951 32.9792C28.6457 33.0123 28.6898 33.0411 28.7263 33.0656C29.2582 33.8838 29.3777 35.643 25.6005 36.1339C25.1591 38.2449 23.4953 39.1409 22.7186 39.325C20.5724 39.6318 19.5223 38.2817 19.0395 37.4226C18.5567 36.5635 17.9357 36.9931 17.8132 37.7295C17.6908 38.4658 16.8934 40 14.1954 40C11.7911 40 11.3347 38.2456 11.1336 37.4728C11.109 37.3784 11.0883 37.2986 11.0683 37.2385C10.8843 36.6862 10.2711 36.6003 10.0259 37.2385C9.57619 37.9954 8.29671 39.4723 6.77604 39.325C4.8752 39.1409 3.4649 37.8522 3.40358 36.1339C0.766938 35.7044 -0.191763 34.7448 0.0311298 33.7406C0.153716 33.1883 0.705572 32.8201 1.25743 32.5133C1.80928 32.2065 4.07803 30.3041 2.23851 26.7449C2.18871 26.6485 2.134 26.5673 2.07466 26.5007C0.815014 24.3586 0.0925409 21.8621 0.0925409 19.1968C0.0925409 11.2323 6.54392 4.77573 14.5021 4.77573C22.4603 4.77573 28.9117 11.2323 28.9117 19.1968Z" fill="#1778FF"/>
<ellipse cx="14.4205" cy="20.2299" rx="6.95353" ry="6.9591" fill="white"/>
<rect x="7.46698" width="4.95911" height="20.176" fill="white"/>
<ellipse cx="14.4744" cy="20.3918" rx="3.34201" ry="3.34468" fill="#1778FF"/>
</svg>
